<mxfile modified="2023-02-06T09:42:35.782Z" host="app.diagrams.net" agent="5.0 (Windows NT 10.0; Win64; x64) AppleWebKit/537.36 (KHTML, like Gecko) Chrome/109.0.0.0 Safari/537.36" etag="YrYv9rpkNymJlZuuOTo4" version="20.8.16" type="github">
  <diagram id="Ht1M8jgEwFfnCIfOTk4-" name="Page-1">
    <mxGraphModel dx="1050" dy="541" grid="1" gridSize="10" guides="1" tooltips="1" connect="1" arrows="1" fold="1" page="1" pageScale="1" pageWidth="1169" pageHeight="827" math="0" shadow="0">
      <root>
        <mxCell id="0" />
        <mxCell id="1" parent="0" />
        <mxCell id="KHJsK5k8bRfUbACJ1K8j-1" value="ap-northeast-3" style="points=[[0,0],[0.25,0],[0.5,0],[0.75,0],[1,0],[1,0.25],[1,0.5],[1,0.75],[1,1],[0.75,1],[0.5,1],[0.25,1],[0,1],[0,0.75],[0,0.5],[0,0.25]];outlineConnect=0;gradientColor=none;html=1;whiteSpace=wrap;fontSize=12;fontStyle=0;container=1;pointerEvents=0;collapsible=0;recursiveResize=0;shape=mxgraph.aws4.group;grIcon=mxgraph.aws4.group_region;strokeColor=#147EBA;fillColor=none;verticalAlign=top;align=left;spacingLeft=30;fontColor=#147EBA;dashed=1;" parent="1" vertex="1">
          <mxGeometry x="290" y="260" width="690" height="439" as="geometry" />
        </mxCell>
        <mxCell id="KHJsK5k8bRfUbACJ1K8j-2" value="VPC" style="points=[[0,0],[0.25,0],[0.5,0],[0.75,0],[1,0],[1,0.25],[1,0.5],[1,0.75],[1,1],[0.75,1],[0.5,1],[0.25,1],[0,1],[0,0.75],[0,0.5],[0,0.25]];outlineConnect=0;gradientColor=none;html=1;whiteSpace=wrap;fontSize=12;fontStyle=0;container=1;pointerEvents=0;collapsible=0;recursiveResize=0;shape=mxgraph.aws4.group;grIcon=mxgraph.aws4.group_vpc;strokeColor=#248814;fillColor=none;verticalAlign=top;align=left;spacingLeft=30;fontColor=#AAB7B8;dashed=0;" parent="KHJsK5k8bRfUbACJ1K8j-1" vertex="1">
          <mxGeometry x="30" y="140" width="480" height="225.5" as="geometry" />
        </mxCell>
        <mxCell id="KHJsK5k8bRfUbACJ1K8j-14" value="ALB" style="sketch=0;points=[[0,0,0],[0.25,0,0],[0.5,0,0],[0.75,0,0],[1,0,0],[0,1,0],[0.25,1,0],[0.5,1,0],[0.75,1,0],[1,1,0],[0,0.25,0],[0,0.5,0],[0,0.75,0],[1,0.25,0],[1,0.5,0],[1,0.75,0]];outlineConnect=0;fontColor=#232F3E;gradientColor=#945DF2;gradientDirection=north;fillColor=#5A30B5;strokeColor=#ffffff;dashed=0;verticalLabelPosition=bottom;verticalAlign=top;align=center;html=1;fontSize=12;fontStyle=0;aspect=fixed;shape=mxgraph.aws4.resourceIcon;resIcon=mxgraph.aws4.elastic_load_balancing;" parent="KHJsK5k8bRfUbACJ1K8j-2" vertex="1">
          <mxGeometry x="240" y="13.5" width="26.5" height="25.5" as="geometry" />
        </mxCell>
        <mxCell id="KHJsK5k8bRfUbACJ1K8j-18" value="" style="edgeStyle=orthogonalEdgeStyle;html=1;endArrow=none;elbow=vertical;startArrow=block;startFill=1;strokeColor=#545B64;rounded=0;" parent="KHJsK5k8bRfUbACJ1K8j-2" source="KHJsK5k8bRfUbACJ1K8j-13" edge="1">
          <mxGeometry width="100" relative="1" as="geometry">
            <mxPoint x="258.22" y="180" as="sourcePoint" />
            <mxPoint x="252.97000000000003" y="30" as="targetPoint" />
            <Array as="points">
              <mxPoint x="280" y="84" />
              <mxPoint x="280" y="34" />
              <mxPoint x="253" y="34" />
            </Array>
          </mxGeometry>
        </mxCell>
        <mxCell id="KHJsK5k8bRfUbACJ1K8j-6" value="ap northeast-2a" style="fillColor=none;strokeColor=#147EBA;dashed=1;verticalAlign=top;fontStyle=0;fontColor=#147EBA;" parent="KHJsK5k8bRfUbACJ1K8j-1" vertex="1">
          <mxGeometry x="80" y="50" width="180" height="369" as="geometry" />
        </mxCell>
        <mxCell id="KHJsK5k8bRfUbACJ1K8j-7" value="apne-2c" style="fillColor=none;strokeColor=#147EBA;dashed=1;verticalAlign=top;fontStyle=0;fontColor=#147EBA;" parent="KHJsK5k8bRfUbACJ1K8j-1" vertex="1">
          <mxGeometry x="310" y="50" width="180" height="369" as="geometry" />
        </mxCell>
        <mxCell id="KHJsK5k8bRfUbACJ1K8j-10" value="bastion" style="sketch=0;outlineConnect=0;fontColor=#232F3E;gradientColor=none;fillColor=#D45B07;strokeColor=none;dashed=0;verticalLabelPosition=bottom;verticalAlign=top;align=center;html=1;fontSize=12;fontStyle=0;aspect=fixed;pointerEvents=1;shape=mxgraph.aws4.instance2;" parent="KHJsK5k8bRfUbACJ1K8j-1" vertex="1">
          <mxGeometry x="110" y="292" width="22" height="24" as="geometry" />
        </mxCell>
        <mxCell id="KHJsK5k8bRfUbACJ1K8j-13" value="dvwa" style="sketch=0;outlineConnect=0;fontColor=#232F3E;gradientColor=none;fillColor=#D45B07;strokeColor=none;dashed=0;verticalLabelPosition=bottom;verticalAlign=top;align=center;html=1;fontSize=12;fontStyle=0;aspect=fixed;pointerEvents=1;shape=mxgraph.aws4.instance2;" parent="KHJsK5k8bRfUbACJ1K8j-1" vertex="1">
          <mxGeometry x="450" y="274.5" width="24" height="24" as="geometry" />
        </mxCell>
        <mxCell id="KHJsK5k8bRfUbACJ1K8j-15" value="IGW" style="sketch=0;outlineConnect=0;fontColor=#232F3E;gradientColor=none;fillColor=#4D27AA;strokeColor=none;dashed=0;verticalLabelPosition=bottom;verticalAlign=top;align=center;html=1;fontSize=12;fontStyle=0;aspect=fixed;pointerEvents=1;shape=mxgraph.aws4.internet_gateway;" parent="KHJsK5k8bRfUbACJ1K8j-1" vertex="1">
          <mxGeometry x="270" y="90" width="30" height="29" as="geometry" />
        </mxCell>
        <mxCell id="KHJsK5k8bRfUbACJ1K8j-16" value="" style="edgeStyle=orthogonalEdgeStyle;html=1;endArrow=none;elbow=vertical;startArrow=block;startFill=1;strokeColor=#545B64;rounded=0;exitX=0.5;exitY=0;exitDx=0;exitDy=0;exitPerimeter=0;" parent="KHJsK5k8bRfUbACJ1K8j-1" source="KHJsK5k8bRfUbACJ1K8j-14" edge="1">
          <mxGeometry width="100" relative="1" as="geometry">
            <mxPoint x="178" y="70" as="sourcePoint" />
            <mxPoint x="283" y="130" as="targetPoint" />
          </mxGeometry>
        </mxCell>
        <mxCell id="9CmSmT6cMbp73Giy7Jey-1" value="NAT" style="sketch=0;outlineConnect=0;fontColor=#232F3E;gradientColor=none;fillColor=#4D27AA;strokeColor=none;dashed=0;verticalLabelPosition=bottom;verticalAlign=top;align=center;html=1;fontSize=12;fontStyle=0;aspect=fixed;pointerEvents=1;shape=mxgraph.aws4.nat_gateway;" parent="KHJsK5k8bRfUbACJ1K8j-1" vertex="1">
          <mxGeometry x="190" y="292" width="20" height="24" as="geometry" />
        </mxCell>
        <mxCell id="KHJsK5k8bRfUbACJ1K8j-21" style="edgeStyle=orthogonalEdgeStyle;rounded=0;orthogonalLoop=1;jettySize=auto;html=1;" parent="1" source="KHJsK5k8bRfUbACJ1K8j-9" target="KHJsK5k8bRfUbACJ1K8j-15" edge="1">
          <mxGeometry relative="1" as="geometry" />
        </mxCell>
        <mxCell id="KHJsK5k8bRfUbACJ1K8j-9" value="users" style="sketch=0;outlineConnect=0;gradientColor=none;fontColor=#545B64;strokeColor=none;fillColor=#879196;dashed=0;verticalLabelPosition=bottom;verticalAlign=top;align=center;html=1;fontSize=12;fontStyle=0;aspect=fixed;shape=mxgraph.aws4.illustration_users;pointerEvents=1" parent="1" vertex="1">
          <mxGeometry x="520" y="210" width="20" height="24" as="geometry" />
        </mxCell>
      </root>
    </mxGraphModel>
  </diagram>
</mxfile>
